<svg xmlns="http://www.w3.org/2000/svg" xmlns:xlink="http://www.w3.org/1999/xlink" version="1.1" width="84.1807" height="75.83653" viewBox="0,0,84.1807,75.83653"><defs><linearGradient x1="276.28279" y1="138.89604" x2="255.11484" y2="176.22875" gradientUnits="userSpaceOnUse" id="color-1"><stop offset="0" stop-color="#604800"/><stop offset="1" stop-color="#856c21"/></linearGradient><linearGradient x1="202.07726" y1="140.0627" x2="223.24522" y2="177.39542" gradientUnits="userSpaceOnUse" id="color-2"><stop offset="0" stop-color="#604800"/><stop offset="1" stop-color="#856c21"/></linearGradient><radialGradient cx="253.42811" cy="178.85418" r="2.82461" gradientUnits="userSpaceOnUse" id="color-3"><stop offset="0" stop-color="#5d038e"/><stop offset="1" stop-color="#bd00ff"/></radialGradient><radialGradient cx="225.17811" cy="179.25418" r="2.82461" gradientUnits="userSpaceOnUse" id="color-4"><stop offset="0" stop-color="#5d038e"/><stop offset="1" stop-color="#bd00ff"/></radialGradient><radialGradient cx="238.71789" cy="163.43704" r="2.05802" gradientUnits="userSpaceOnUse" id="color-5"><stop offset="0" stop-color="#5d038e"/><stop offset="1" stop-color="#bd00ff"/></radialGradient></defs><g transform="translate(-197.08967,-137.72285)"><g data-paper-data="{&quot;isPaintingLayer&quot;:true}" fill-rule="nonzero" stroke-linecap="butt" stroke-linejoin="miter" stroke-miterlimit="10" stroke-dasharray="" stroke-dashoffset="0" style="mix-blend-mode: normal"><path d="M278.57339,140.19483c0,0 6.46739,20.56474 -5.84916,26.90255c-12.31655,6.33781 -17.34348,3.54147 -24.00058,3.90318c-10.00496,0.54361 -1.02305,-7.3073 11.2935,-13.6451c12.31655,-6.33781 18.55624,-17.16063 18.55624,-17.16063z" data-paper-data="{&quot;index&quot;:null}" fill="url(#color-1)" stroke="#000000" stroke-width="2"/><path d="M218.3429,158.52212c12.31655,6.33781 21.29846,14.18872 11.2935,13.64511c-6.65709,-0.36171 -11.68403,2.43463 -24.00058,-3.90318c-12.31655,-6.33781 -5.84916,-26.90256 -5.84916,-26.90256c0,0 6.23969,10.82282 18.55624,17.16063z" fill="url(#color-2)" stroke="#000000" stroke-width="2"/><g stroke="#000000"><path d="M273.12943,180.00001c0,17.84398 -14.83255,32.30938 -33.12942,32.30938c-18.29687,0 -33.12942,-14.46541 -33.12942,-32.30938c0,-17.84398 14.83255,-32.30938 33.12942,-32.30938c18.29687,0 33.12942,14.46541 33.12942,32.30938z" fill="#c5a132" stroke-width="2.5"/><path d="M221.94666,169.19063c-3.08103,0 -5.5787,-2.43585 -5.5787,-5.44062c0,-3.00477 2.49767,-5.44062 5.5787,-5.44062c3.08103,0 5.57871,2.43585 5.57871,5.44062c0,3.00477 -2.49768,5.44062 -5.57871,5.44062z" fill="#7c5d00" stroke-width="0"/><path d="M256.44667,201.69063c-5.42824,0 -9.8287,-4.29154 -9.8287,-9.58542c0,-5.29388 4.40046,-9.58542 9.8287,-9.58542c5.42824,0 9.8287,4.29154 9.8287,9.58542c0,5.29388 -4.40046,9.58542 -9.8287,9.58542z" fill="#7c5d00" stroke-width="0"/><path d="M224.69666,188.69063c-2.11453,0 -3.8287,-1.67173 -3.8287,-3.73393c0,-2.0622 1.71417,-3.73394 3.8287,-3.73394c2.11454,0 3.82871,1.67174 3.82871,3.73394c0,2.06219 -1.71418,3.73393 -3.82871,3.73393z" fill="#7c5d00" stroke-width="0"/></g><g stroke="none" stroke-width="0"><path d="M249.93818,203.15577c-0.02317,3.35432 -4.43684,2.87058 -10.98476,2.80721c-6.54792,-0.06337 -10.55373,0.63518 -10.53056,-2.71914c0.00763,-1.1058 21.52521,-1.52014 21.51533,-0.08807z" data-paper-data="{&quot;index&quot;:null}" fill="#7c5d00"/><path d="M249.54514,201.86344c0,2.0191 -4.27359,1.75365 -10.60934,1.75365c-6.33575,0 -10.20682,0.44379 -10.20682,-1.57531c0,-0.66563 7.05151,-3.5298 7.98744,-3.56692c0.60854,-0.02412 1.57377,1.28841 2.19673,1.31759c0.94895,0.04446 1.89529,-1.39031 2.81052,-1.33012c4.27991,0.28145 7.82149,2.53909 7.82149,3.40112z" fill="#604800"/></g><g stroke="#000000"><path d="M253.2918,182.65985c-5.59567,0 -10.13187,-3.044 -10.13187,-6.79896c0,-3.75496 -0.08314,-3.082 10.05164,-3.17677c10.85805,-0.10154 10.21209,-0.57819 10.21209,3.17677c0,3.75496 -4.53619,6.79896 -10.13187,6.79896z" data-paper-data="{&quot;index&quot;:null}" fill="#ffffff" stroke-width="1"/><path d="M256.20859,178.85418c0,1.55999 -1.24486,2.82462 -2.78048,2.82462c-1.53562,0 -2.78048,-1.26463 -2.78048,-2.82462c0,-1.55999 1.24487,-2.82461 2.78048,-2.82461c1.53562,0 2.78048,1.26462 2.78048,2.82461z" fill="url(#color-3)" stroke-width="0.25"/><path d="M254.50374,178.90922c0,0.62849 -0.50153,1.13798 -1.1202,1.13798c-0.61867,0 -1.1202,-0.50949 -1.1202,-1.13798c0,-0.62849 0.50153,-1.13799 1.1202,-1.13799c0.61867,0 1.1202,0.50949 1.1202,1.13799z" fill="#000000" stroke-width="0.5"/></g><g stroke="#000000"><path d="M225.0418,183.05985c-5.59567,0 -10.13187,-3.044 -10.13187,-6.79896c0,-3.75496 -0.08314,-3.082 10.05164,-3.17677c10.85805,-0.10154 10.21209,-0.57819 10.21209,3.17677c0,3.75496 -4.53619,6.79896 -10.13187,6.79896z" data-paper-data="{&quot;index&quot;:null}" fill="#ffffff" stroke-width="1"/><path d="M227.95859,179.25418c0,1.55999 -1.24486,2.82462 -2.78048,2.82462c-1.53562,0 -2.78048,-1.26463 -2.78048,-2.82462c0,-1.55999 1.24487,-2.82461 2.78048,-2.82461c1.53562,0 2.78048,1.26462 2.78048,2.82461z" fill="url(#color-4)" stroke-width="0.25"/><path d="M226.25374,179.30922c0,0.62849 -0.50153,1.13798 -1.1202,1.13798c-0.61867,0 -1.1202,-0.50949 -1.1202,-1.13798c0,-0.62849 0.50153,-1.13799 1.1202,-1.13799c0.61867,0 1.1202,0.50949 1.1202,1.13799z" fill="#000000" stroke-width="0.5"/></g><g stroke="#000000"><path d="M238.61857,166.20985c-4.07701,0 -7.38208,-2.21786 -7.38208,-4.95372c0,-2.73586 -0.06058,-2.24554 7.32363,-2.31459c7.91117,-0.07398 7.44052,-0.42127 7.44052,2.31459c0,2.73586 -3.30506,4.95372 -7.38207,4.95372z" data-paper-data="{&quot;index&quot;:null}" fill="#ffffff" stroke-width="1"/><path d="M240.74374,163.43704c0,1.13661 -0.907,2.05801 -2.02586,2.05801c-1.11885,0 -2.02586,-0.9214 -2.02586,-2.05801c0,-1.13661 0.90701,-2.05802 2.02586,-2.05802c1.11885,0 2.02586,0.92141 2.02586,2.05802z" fill="url(#color-5)" stroke-width="0.25"/><path d="M239.50159,163.47714c0,0.45792 -0.36542,0.82914 -0.81618,0.82914c-0.45076,0 -0.81618,-0.37122 -0.81618,-0.82914c0,-0.45792 0.36541,-0.82913 0.81618,-0.82913c0.45076,0 0.81618,0.37121 0.81618,0.82913z" fill="#000000" stroke-width="0.5"/></g></g></g></svg>
