<svg xmlns="http://www.w3.org/2000/svg" xmlns:xlink="http://www.w3.org/1999/xlink" version="1.1" width="84.66666" height="61.75893" viewBox="0,0,84.66666,61.75893"><g transform="translate(-203.85001,-134.30775)"><g data-paper-data="{&quot;isPaintingLayer&quot;:true}" fill-rule="nonzero" stroke-linecap="butt" stroke-linejoin="miter" stroke-miterlimit="10" stroke-dasharray="" stroke-dashoffset="0" style="mix-blend-mode: normal"><path d="M245.01667,195.97441c-22.45958,0 -41.16666,0.69545 -41.16666,-16.33333c0,-17.02878 18.70709,-45.33333 41.16666,-45.33333c22.45958,0 43.5,29.80455 43.5,46.83333c0,17.02878 -21.04042,14.83334 -43.5,14.83334z" data-paper-data="{&quot;index&quot;:null}" fill="#835b5b" stroke="none" stroke-width="0"/><path d="M233.54804,153.47266c-4.68383,0 -8.48083,-1.11979 -8.48083,-2.50111c0,-1.38133 -0.06959,-1.13376 8.41368,-1.16863c9.08868,-0.03735 8.54798,-0.2127 8.54798,1.16863c0,1.38133 -3.797,2.50111 -8.48083,2.50111z" data-paper-data="{&quot;index&quot;:null}" fill="#ffffff" stroke="#000000" stroke-width="1"/><path d="M235.90582,150.51035c0,1.30578 -1.042,2.36434 -2.32738,2.36434c-1.28538,0 -2.32739,-1.05856 -2.32739,-2.36434c0,-0.10888 0.00724,-0.21604 0.02127,-0.321c1.53742,0 3.07482,0 4.61223,0c0.01403,0.10496 0.02127,0.21212 0.02127,0.321z" fill="#6c494a" stroke="#000000" stroke-width="0.25"/><path d="M234.90137,150.50504c0,0.75397 -0.60166,1.36519 -1.34386,1.36519c-0.7422,0 -1.34386,-0.61121 -1.34386,-1.36519c0,-0.06286 0.00418,-0.12474 0.01228,-0.18535c0.88772,0 1.77544,0 2.66316,0c0.0081,0.06061 0.01228,0.12249 0.01228,0.18535z" fill="#000000" stroke="#000000" stroke-width="0.25"/><path d="M254.94804,163.47266c-4.68383,0 -8.48083,-1.11979 -8.48083,-2.50111c0,-1.38133 -0.06959,-1.13376 8.41368,-1.16863c9.08868,-0.03735 8.54798,-0.2127 8.54798,1.16863c0,1.38133 -3.797,2.50111 -8.48083,2.50111z" data-paper-data="{&quot;index&quot;:null}" fill="#ffffff" stroke="#000000" stroke-width="1"/><path d="M257.30582,160.51035c0,1.30578 -1.042,2.36434 -2.32738,2.36434c-1.28538,0 -2.32739,-1.05856 -2.32739,-2.36434c0,-0.10888 0.00724,-0.21604 0.02127,-0.321c1.53742,0 3.07482,0 4.61224,0c0.01403,0.10496 0.02127,0.21212 0.02127,0.321z" fill="#6c494a" stroke="#000000" stroke-width="0.25"/><path d="M256.30136,160.50504c0,0.75397 -0.60166,1.36519 -1.34386,1.36519c-0.7422,0 -1.34386,-0.61121 -1.34386,-1.36519c0,-0.06286 0.00418,-0.12474 0.01228,-0.18535c0.88772,0 1.77544,0 2.66316,0c0.0081,0.06061 0.01228,0.12249 0.01228,0.18535z" fill="#000000" stroke="#000000" stroke-width="0.25"/><path d="M229.94804,170.87266c-4.68383,0 -8.48083,-1.11979 -8.48083,-2.50111c0,-1.38133 -0.06959,-1.13377 8.41368,-1.16863c9.08868,-0.03735 8.54798,-0.21269 8.54798,1.16863c0,1.38133 -3.797,2.50111 -8.48084,2.50111z" data-paper-data="{&quot;index&quot;:null}" fill="#ffffff" stroke="#000000" stroke-width="1"/><path d="M232.30582,167.91035c0,1.30578 -1.042,2.36434 -2.32739,2.36434c-1.28538,0 -2.32739,-1.05856 -2.32739,-2.36434c0,-0.10888 0.00724,-0.21604 0.02127,-0.321c1.53742,0 3.07482,0 4.61223,0c0.01403,0.10496 0.02127,0.21212 0.02127,0.321z" fill="#6c494a" stroke="#000000" stroke-width="0.25"/><path d="M231.30137,167.90504c0,0.75397 -0.60166,1.36519 -1.34386,1.36519c-0.7422,0 -1.34386,-0.61121 -1.34386,-1.36519c0,-0.06286 0.00418,-0.12474 0.01228,-0.18535c0.88772,0 1.77544,0 2.66316,0c0.0081,0.06061 0.01228,0.12249 0.01228,0.18535z" fill="#000000" stroke="#000000" stroke-width="0.25"/><path d="M261.14804,152.07266c-4.68383,0 -8.48083,-1.11979 -8.48083,-2.50111c0,-1.38133 -0.06959,-1.13376 8.41368,-1.16863c9.08868,-0.03735 8.54798,-0.2127 8.54798,1.16863c0,1.38133 -3.797,2.50111 -8.48084,2.50111z" data-paper-data="{&quot;index&quot;:null}" fill="#ffffff" stroke="#000000" stroke-width="1"/><path d="M263.50582,149.11035c0,1.30578 -1.042,2.36433 -2.32739,2.36433c-1.28539,0 -2.32739,-1.05855 -2.32739,-2.36433c0,-0.10888 0.00725,-0.21604 0.02127,-0.321c1.53742,0 3.07482,0 4.61223,0c0.01403,0.10496 0.02127,0.21212 0.02127,0.321z" fill="#6c494a" stroke="#000000" stroke-width="0.25"/><path d="M262.50137,149.10504c0,0.75397 -0.60167,1.36519 -1.34386,1.36519c-0.74219,0 -1.34386,-0.61121 -1.34386,-1.36519c0,-0.06286 0.00418,-0.12474 0.01228,-0.18535c0.88772,0 1.77544,0 2.66316,0c0.0081,0.06061 0.01228,0.12249 0.01228,0.18535z" fill="#000000" stroke="#000000" stroke-width="0.25"/><path d="M271.74804,173.27266c-4.68383,0 -8.48084,-1.11978 -8.48084,-2.50111c0,-1.38133 -0.06959,-1.13377 8.41368,-1.16863c9.08868,-0.03735 8.54798,-0.21269 8.54798,1.16863c0,1.38133 -3.797,2.50111 -8.48083,2.50111z" data-paper-data="{&quot;index&quot;:null}" fill="#ffffff" stroke="#000000" stroke-width="1"/><path d="M274.10582,170.31035c0,1.30578 -1.042,2.36434 -2.32738,2.36434c-1.28539,0 -2.32739,-1.05856 -2.32739,-2.36434c0,-0.10888 0.00724,-0.21604 0.02127,-0.321c1.53742,0 3.07482,0 4.61223,0c0.01403,0.10496 0.02127,0.21212 0.02127,0.321z" fill="#6c494a" stroke="#000000" stroke-width="0.25"/><path d="M273.10137,170.30504c0,0.75397 -0.60167,1.36519 -1.34386,1.36519c-0.74219,0 -1.34386,-0.61122 -1.34386,-1.36519c0,-0.06286 0.00418,-0.12474 0.01228,-0.18535c0.88772,0 1.77544,0 2.66316,0c0.0081,0.06061 0.01228,0.12249 0.01228,0.18535z" fill="#000000" stroke="#000000" stroke-width="0.25"/><path d="M220.94804,162.67266c-4.68383,0 -8.48083,-1.11978 -8.48083,-2.50111c0,-1.38133 -0.06959,-1.13377 8.41368,-1.16863c9.08868,-0.03735 8.54798,-0.21269 8.54798,1.16863c0,1.38133 -3.797,2.50111 -8.48084,2.50111z" data-paper-data="{&quot;index&quot;:null}" fill="#ffffff" stroke="#000000" stroke-width="1"/><path d="M223.30582,159.71035c0,1.30578 -1.042,2.36433 -2.32739,2.36433c-1.28538,0 -2.32739,-1.05855 -2.32739,-2.36433c0,-0.10888 0.00724,-0.21604 0.02127,-0.321c1.53742,0 3.07482,0 4.61223,0c0.01403,0.10496 0.02127,0.21212 0.02127,0.321z" fill="#6c494a" stroke="#000000" stroke-width="0.25"/><path d="M222.30137,159.70504c0,0.75397 -0.60166,1.36519 -1.34386,1.36519c-0.7422,0 -1.34386,-0.61122 -1.34386,-1.36519c0,-0.06286 0.00418,-0.12474 0.01228,-0.18535c0.88772,0 1.77544,0 2.66316,0c0.0081,0.06061 0.01228,0.12249 0.01228,0.18535z" fill="#000000" stroke="#000000" stroke-width="0.25"/><path d="M246.54804,143.67266c-4.68383,0 -8.48083,-1.11978 -8.48083,-2.50111c0,-1.38133 -0.06959,-1.13377 8.41368,-1.16863c9.08868,-0.03735 8.54798,-0.21269 8.54798,1.16863c0,1.38133 -3.797,2.50111 -8.48083,2.50111z" data-paper-data="{&quot;index&quot;:null}" fill="#ffffff" stroke="#000000" stroke-width="1"/><path d="M248.90582,140.71035c0,1.30578 -1.042,2.36433 -2.32738,2.36433c-1.28538,0 -2.32739,-1.05855 -2.32739,-2.36433c0,-0.10888 0.00724,-0.21604 0.02127,-0.321c1.53742,0 3.07482,0 4.61223,0c0.01403,0.10496 0.02127,0.21212 0.02127,0.321z" fill="#6c494a" stroke="#000000" stroke-width="0.25"/><path d="M247.90137,140.70504c0,0.75397 -0.60166,1.36519 -1.34386,1.36519c-0.7422,0 -1.34386,-0.61122 -1.34386,-1.36519c0,-0.06286 0.00418,-0.12474 0.01228,-0.18535c0.88772,0 1.77544,0 2.66316,0c0.0081,0.06061 0.01228,0.12249 0.01228,0.18535z" fill="#000000" stroke="#000000" stroke-width="0.25"/><path d="M217.34804,180.07266c-4.68383,0 -8.48083,-1.11979 -8.48083,-2.50111c0,-1.38133 -0.06959,-1.13376 8.41368,-1.16863c9.08868,-0.03735 8.54798,-0.2127 8.54798,1.16863c0,1.38133 -3.797,2.50111 -8.48084,2.50111z" data-paper-data="{&quot;index&quot;:null}" fill="#ffffff" stroke="#000000" stroke-width="1"/><path d="M219.70582,177.11035c0,1.30578 -1.042,2.36433 -2.32738,2.36433c-1.28538,0 -2.32739,-1.05855 -2.32739,-2.36433c0,-0.10888 0.00725,-0.21604 0.02127,-0.321c1.53742,0 3.07482,0 4.61223,0c0.01403,0.10496 0.02127,0.21212 0.02127,0.321z" fill="#6c494a" stroke="#000000" stroke-width="0.25"/><path d="M218.70137,177.10504c0,0.75397 -0.60166,1.36519 -1.34386,1.36519c-0.7422,0 -1.34386,-0.61121 -1.34386,-1.36519c0,-0.06286 0.00418,-0.12474 0.01228,-0.18535c0.88772,0 1.77544,0 2.66316,0c0.0081,0.06061 0.01228,0.12249 0.01228,0.18535z" fill="#000000" stroke="#000000" stroke-width="0.25"/><path d="M272.74804,166.67266c-4.68383,0 -8.48083,-1.11979 -8.48083,-2.50111c0,-1.38133 -0.06959,-1.13376 8.41368,-1.16863c9.08868,-0.03735 8.54798,-0.2127 8.54798,1.16863c0,1.38133 -3.797,2.50111 -8.48084,2.50111z" data-paper-data="{&quot;index&quot;:null}" fill="#ffffff" stroke="#000000" stroke-width="1"/><path d="M275.10582,163.71035c0,1.30578 -1.042,2.36433 -2.32738,2.36433c-1.28539,0 -2.32739,-1.05855 -2.32739,-2.36433c0,-0.10888 0.00725,-0.21604 0.02127,-0.321c1.53742,0 3.07482,0 4.61223,0c0.01403,0.10496 0.02127,0.21212 0.02127,0.321z" fill="#6c494a" stroke="#000000" stroke-width="0.25"/><path d="M274.10137,163.70504c0,0.75397 -0.60167,1.36519 -1.34386,1.36519c-0.74219,0 -1.34386,-0.61121 -1.34386,-1.36519c0,-0.06286 0.00418,-0.12474 0.01228,-0.18535c0.88772,0 1.77544,0 2.66316,0c0.0081,0.06061 0.01228,0.12249 0.01228,0.18535z" fill="#000000" stroke="#000000" stroke-width="0.25"/><path d="M249.94804,177.07266c-4.68383,0 -8.48083,-1.11979 -8.48083,-2.50111c0,-1.38133 -0.06959,-1.13376 8.41368,-1.16863c9.08868,-0.03735 8.54798,-0.2127 8.54798,1.16863c0,1.38133 -3.797,2.50111 -8.48084,2.50111z" data-paper-data="{&quot;index&quot;:null}" fill="#ffffff" stroke="#000000" stroke-width="1"/><path d="M252.30582,174.11035c0,1.30578 -1.042,2.36433 -2.32738,2.36433c-1.28538,0 -2.32739,-1.05855 -2.32739,-2.36433c0,-0.10888 0.00725,-0.21604 0.02127,-0.321c1.53742,0 3.07482,0 4.61223,0c0.01403,0.10496 0.02127,0.21212 0.02127,0.321z" fill="#6c494a" stroke="#000000" stroke-width="0.25"/><path d="M251.30137,174.10504c0,0.75397 -0.60166,1.36519 -1.34386,1.36519c-0.7422,0 -1.34386,-0.61121 -1.34386,-1.36519c0,-0.06286 0.00418,-0.12474 0.01228,-0.18535c0.88772,0 1.77544,0 2.66316,0c0.0081,0.06061 0.01228,0.12249 0.01228,0.18535z" fill="#000000" stroke="#000000" stroke-width="0.25"/><path d="M261.00184,190.75349c-0.03177,4.59971 -6.08415,3.93637 -15.06319,3.84947c-8.97905,-0.0869 -14.47213,0.87101 -14.44036,-3.7287c0.01047,-1.51636 29.51711,-2.08454 29.50356,-0.12077z" data-paper-data="{&quot;index&quot;:null}" fill="#4f3737" stroke="none" stroke-width="0"/><path d="M260.46288,188.98134c0,2.76876 -5.8603,2.40475 -14.54839,2.40475c-8.68809,0 -13.99641,0.60856 -13.99641,-2.1602c0,-0.91276 9.6696,-4.84034 10.95301,-4.89124c0.83448,-0.03308 2.15809,1.76678 3.01235,1.80679c1.30128,0.06096 2.59898,-1.90651 3.85401,-1.82398c5.86897,0.38595 10.72545,3.48179 10.72545,4.66388z" fill="#593d3d" stroke="none" stroke-width="0"/></g></g></svg>
