<svg xmlns="http://www.w3.org/2000/svg" xmlns:xlink="http://www.w3.org/1999/xlink" version="1.1" width="63.64628" height="125.1877" viewBox="0,0,63.64628,125.1877"><g transform="translate(-208.01019,-118.98752)"><g data-paper-data="{&quot;isPaintingLayer&quot;:true}" fill-rule="nonzero" stroke="none" stroke-width="0" stroke-linecap="butt" stroke-linejoin="miter" stroke-miterlimit="10" stroke-dasharray="" stroke-dashoffset="0" style="mix-blend-mode: normal"><path d="M247.72683,169.7767c1.4557,-8.9629 4.62916,-14.93042 7.08814,-13.32887c2.45898,1.60158 3.2723,10.16573 1.8166,19.12863c-1.45568,8.9629 -4.62915,14.93044 -7.08813,13.32888c-2.45898,-1.60155 -3.27231,-10.16572 -1.81661,-19.12862z" fill="#256a93"/><path d="M255.01637,139.94604c2.48318,0.35289 3.85008,8.50329 3.05303,18.20436c-0.79705,9.70109 -3.45621,17.27927 -5.9394,16.92635c-2.48318,-0.35289 -3.85005,-8.50329 -3.053,-18.20436c0.79705,-9.70109 3.45618,-17.27927 5.93937,-16.92635z" fill="#256a93"/><path d="M255.21421,119.82438c5.23662,0 9.48174,6.07581 9.48174,13.57072c0,7.49489 -4.24512,13.57072 -9.48174,13.57072c-5.23662,0 -9.48175,-6.0758 -9.48175,-13.57072c0,-7.49489 4.24513,-13.57072 9.48175,-13.57072z" fill="#256a93"/><path d="M255.20941,123.3719c3.87728,0 7.02042,4.49863 7.02042,10.04797c0,5.54935 -3.14314,10.048 -7.02042,10.048c-3.87728,0 -7.02044,-4.49865 -7.02044,-10.048c0,-5.54933 3.14316,-10.04797 7.02044,-10.04797z" fill="#ffffff"/><path d="M255.2049,125.04655c3.30562,0 5.98534,3.83541 5.98534,8.56657c0,4.73118 -2.6797,8.56656 -5.98534,8.56656c-3.30562,0 -5.98536,-3.8354 -5.98536,-8.56656c0,-4.73118 2.67972,-8.56657 5.98536,-8.56657z" fill="#00a907"/><path d="M255.22065,127.36531c2.46058,0 4.45527,2.85492 4.45527,6.37662c0,3.52172 -1.99469,6.37662 -4.45527,6.37662c-2.46058,0 -4.45527,-2.85492 -4.45527,-6.37662c0,-3.52172 1.99469,-6.37662 4.45527,-6.37662z" fill="#000000"/><path d="M252.08977,127.49033c1.0367,0 1.87712,1.19651 1.87712,2.67248c0,1.47596 -0.84042,2.67248 -1.87712,2.67248c-1.03667,0 -1.87709,-1.1965 -1.87709,-2.67248c0,-1.47598 0.84039,-2.67248 1.87709,-2.67248z" fill="#ffffff"/><g><path d="M233.55968,168.93985c1.4557,8.9629 0.64238,17.52707 -1.81661,19.12862c-2.45898,1.60155 -5.63243,-4.36598 -7.08813,-13.32886c-1.4557,-8.9629 -0.64238,-17.52708 1.81661,-19.12863c2.45898,-1.60155 5.63243,4.36599 7.08813,13.32887z" fill="#256a93"/><path d="M232.20949,156.03553c0.79705,9.70109 -0.56982,17.85147 -3.053,18.20438c-2.48318,0.35291 -5.14235,-7.22527 -5.9394,-16.92635c-0.79705,-9.70109 0.56984,-17.85145 3.05303,-18.20436c2.48318,-0.35291 5.14235,7.22527 5.9394,16.92635z" fill="#256a93"/><path d="M235.77303,132.55824c0,7.49491 -4.24513,13.57072 -9.48173,13.57072c-5.23662,0 -9.48172,-6.07583 -9.48172,-13.57072c0,-7.49491 4.24512,-13.57072 9.48172,-13.57072c5.23662,0 9.48173,6.07583 9.48173,13.57072z" fill="#256a93"/><path d="M233.09753,132.58301c0,5.54935 -3.14316,10.048 -7.02044,10.048c-3.87728,0 -7.02042,-4.49863 -7.02042,-10.048c0,-5.54935 3.14314,-10.048 7.02042,-10.048c3.87728,0 7.02044,4.49863 7.02044,10.048z" fill="#ffffff"/><path d="M232.06697,132.77625c0,4.73118 -2.67975,8.56654 -5.98539,8.56654c-3.30564,0 -5.98536,-3.83538 -5.98536,-8.56654c0,-4.73118 2.67973,-8.56654 5.98536,-8.56654c3.30564,0 5.98539,3.83539 5.98539,8.56654z" fill="#00a907"/><path d="M230.52113,132.90506c0,3.5217 -1.99469,6.37662 -4.45528,6.37662c-2.46058,0 -4.45527,-2.8549 -4.45527,-6.37662c0,-3.5217 1.99469,-6.37662 4.45527,-6.37662c2.46058,0 4.45528,2.8549 4.45528,6.37662z" fill="#000000"/><path d="M226.03695,129.10695c0,1.47596 -0.84042,2.67248 -1.8771,2.67248c-1.0367,0 -1.87709,-1.19651 -1.87709,-2.67248c0,-1.47596 0.84042,-2.67248 1.87709,-2.67248c1.0367,0 1.8771,1.1965 1.8771,2.67248z" fill="#ffffff"/></g><g fill="#28739e"><path d="M256.8619,224.63453l1.29699,5.19786l-3.82989,-3.14323z"/><path d="M259.37594,222.59521l0.03848,4.24081l-3.55516,-1.38821z"/><path d="M254.83973,226.27484l2.73528,6.45857l-4.28443,-5.20193z"/><path d="M252.59895,228.0925l1.17033,5.30059l-3.70322,-3.24598z" data-paper-data="{&quot;index&quot;:null}"/><path d="M251.06866,229.3338l-0.13731,4.38344l-3.37933,-1.53084z" data-paper-data="{&quot;index&quot;:null}"/><path d="M253.63736,227.25016l2.65783,6.52139l-4.20697,-5.26478z" data-paper-data="{&quot;index&quot;:null}"/></g><g fill="#28739e"><path d="M263.00494,208.6089l4.49092,4.40792l-5.9981,-0.52213z"/><path d="M264.5009,204.75204l2.56508,4.31397l-4.65762,1.08102z"/><path d="M261.80168,211.71115l6.79126,4.68618l-7.71305,-2.30959z"/><path d="M260.46833,215.14878l4.41554,4.60221l-5.92273,-0.71642z" data-paper-data="{&quot;index&quot;:null}"/><path d="M259.55775,217.49645l2.46045,4.58369l-4.55301,0.81131z" data-paper-data="{&quot;index&quot;:null}"/><path d="M261.08622,213.55574l6.74516,4.805l-7.66698,-2.42839z" data-paper-data="{&quot;index&quot;:null}"/></g><g fill="#28739e"><path d="M260.22257,188.35845l7.69912,6.00244l-6.9026,-1.14471z"/><path d="M259.43198,183.53687l5.52931,5.72927l-4.42341,1.01517z"/><path d="M260.85849,192.23667l10.3955,6.54136l-9.90835,-3.57033z"/><path d="M261.56314,196.53415l7.73897,6.24533l-6.94244,-1.38759z" data-paper-data="{&quot;index&quot;:null}"/><path d="M262.04439,199.46903l5.5846,6.0665l-4.4787,0.67794z" data-paper-data="{&quot;index&quot;:null}"/><path d="M261.2366,194.54264l10.41987,6.68993l-9.93272,-3.71887z" data-paper-data="{&quot;index&quot;:null}"/></g><g fill="#28739e"><path d="M255.2334,177.61412l5.11547,-2.39962l-2.91311,5.7155z"/><path d="M253.04745,174.32296l4.23395,-0.53006l-1.17622,5.13376z"/><path d="M256.99165,180.26136l6.28966,-4.55506l-4.94269,6.58311z"/><path d="M258.94,183.1948l5.22559,-2.23386l-3.02322,5.54969z" data-paper-data="{&quot;index&quot;:null}"/><path d="M260.27057,185.19812l4.38684,-0.29987l-1.32912,4.90357z" data-paper-data="{&quot;index&quot;:null}"/><path d="M258.03711,181.83541l6.35702,-4.4537l-5.01005,6.4817z" data-paper-data="{&quot;index&quot;:null}"/></g><g fill="#28739e"><path d="M243.23831,170.35607l2.28383,-8.06088l0.70769,9.34145z"/><path d="M240.2691,169.08507l2.56265,-5.08116l1.59074,6.85907z"/><path d="M245.62661,171.37845l2.06707,-11.66413l-0.23743,12.44734z"/><path d="M248.27311,172.5113l2.4334,-7.99685l0.5581,9.27742z" data-paper-data="{&quot;index&quot;:null}"/><path d="M250.08048,173.28499l2.77032,-4.99226l1.38306,6.77017z" data-paper-data="{&quot;index&quot;:null}"/><path d="M247.04667,171.98631l2.15857,-11.625l-0.3289,12.40821z" data-paper-data="{&quot;index&quot;:null}"/></g><g fill="#28739e"><path d="M231.26041,172.06696l0.63364,-10.73535l2.36742,9.78238z"/><path d="M228.28171,173.01284l1.4379,-7.65703l2.72874,6.33394z"/><path d="M233.65632,171.30615l-0.22754,-14.55326l2.06301,13.97041z"/><path d="M236.31125,170.46311l0.7837,-10.78301l2.21736,9.83003z" data-paper-data="{&quot;index&quot;:null}"/><path d="M238.1244,169.88733l1.6462,-7.72317l2.52041,6.40007z" data-paper-data="{&quot;index&quot;:null}"/><path d="M235.08092,170.8538l-0.13577,-14.58241l1.97126,13.99956z" data-paper-data="{&quot;index&quot;:null}"/></g><g fill="#28739e"><path d="M220.85882,184.12216l-3.14864,-5.63204l5.50209,2.37664z"/><path d="M218.52292,187.35331l-1.36428,-4.93962l4.63174,0.41986z"/><path d="M222.73768,181.52319l-5.23992,-6.61835l6.67929,4.62732z"/><path d="M224.81969,178.64326l-3.03099,-5.79481l5.3844,2.53942z" data-paper-data="{&quot;index&quot;:null}"/><path d="M226.24153,176.67647l-1.20092,-5.16562l4.46836,0.64586z" data-paper-data="{&quot;index&quot;:null}"/><path d="M223.85487,179.97786l-5.16795,-6.71788l6.60733,4.72685z" data-paper-data="{&quot;index&quot;:null}"/></g><g fill="#28739e"><path d="M216.9222,200.66419l-6.6461,-2.95741l7.38051,-1.23863z"/><path d="M216.19325,204.82899l-4.29694,-3.42635l5.3166,-2.39939z"/><path d="M217.50853,197.31426l-9.49834,-2.55784l9.94752,-0.00852z"/><path d="M218.15825,193.60212l-6.60939,-3.16721l7.34379,-1.02886z" data-paper-data="{&quot;index&quot;:null}"/><path d="M218.60195,191.06704l-4.24595,-3.71763l5.26561,-2.10813z" data-paper-data="{&quot;index&quot;:null}"/><path d="M217.85715,195.32237l-9.4759,-2.68613l9.9251,0.11979z" data-paper-data="{&quot;index&quot;:null}"/></g><g fill="#28739e"><path d="M219.51065,217.1463l-3.42823,0.14031l2.66827,-4.15869z"/><path d="M220.26495,221.13473l-2.59776,-1.24948l1.54264,-4.32961z"/><path d="M218.90392,213.9382l-4.47931,1.6775l4.01452,-4.13516z"/><path d="M218.23163,210.38326l-3.46622,-0.0606l2.70625,-3.95776z" data-paper-data="{&quot;index&quot;:null}"/><path d="M217.77249,207.95553l-2.65052,-1.52841l1.59537,-4.05065z" data-paper-data="{&quot;index&quot;:null}"/><path d="M218.54317,212.03067l-4.50255,1.55462l4.03776,-4.01229z" data-paper-data="{&quot;index&quot;:null}"/></g><g fill="#28739e"><path d="M228.97404,230.54121l-4.61303,4.52846l1.81991,-7.81668z"/><path d="M231.74631,233.80493l-4.0883,1.99442l0.21041,-6.55976z"/><path d="M226.74415,227.91604l-5.37408,7.50054l3.66579,-9.51164z"/><path d="M224.27319,225.00706l-4.75267,4.36408l1.95957,-7.65226z" data-paper-data="{&quot;index&quot;:null}"/><path d="M222.5857,223.02045l-4.2822,1.76619l0.40429,-6.33151z" data-paper-data="{&quot;index&quot;:null}"/><path d="M225.41827,226.35513l-5.45951,7.4l3.75122,-9.41111z" data-paper-data="{&quot;index&quot;:null}"/></g><g fill="#28739e"><path d="M239.02534,234.22459l-1.96543,7.46371l-0.8195,-8.42302z"/><path d="M241.78953,235.17676l-2.27585,4.78049l-1.59074,-6.11238z"/><path d="M236.80195,233.45872l-1.70121,10.7165l-0.00208,-11.30319z"/><path d="M234.33823,232.61007l-2.10467,7.41575l-0.68027,-8.37503z" data-paper-data="{&quot;index&quot;:null}"/><path d="M232.65567,232.0305l-2.46919,4.71393l-1.39741,-6.04581z" data-paper-data="{&quot;index&quot;:null}"/><path d="M235.47995,233.00334l-1.78638,10.68715l0.08308,-11.27386z" data-paper-data="{&quot;index&quot;:null}"/></g><g fill="#28739e"><path d="M249.23196,230.07744l-0.41907,9.26478l-2.55442,-8.13951z"/><path d="M252.18328,228.96053l-1.282,6.70955l-2.84636,-5.14723z"/><path d="M246.85806,230.97582l0.51529,12.44794l-2.33389,-11.7597z"/><path d="M244.22754,231.97131l-0.56775,9.32106l-2.40572,-8.19579z" data-paper-data="{&quot;index&quot;:null}"/><path d="M242.43106,232.65118l-1.48838,6.78769l-2.63993,-5.22532z" data-paper-data="{&quot;index&quot;:null}"/><path d="M245.44655,231.50999l0.42439,12.48238l-2.24297,-11.79415z" data-paper-data="{&quot;index&quot;:null}"/></g><path d="M214.57891,202.18222c-0.37192,-18.93177 10.33805,-34.49532 23.92138,-34.76214c13.58334,-0.26684 24.8963,14.86406 25.26821,33.79583c0.37192,18.93177 -10.33803,34.49533 -23.92137,34.76217c-13.58334,0.26684 -24.89631,-14.86406 -25.26823,-33.79581z" fill="#28739e"/><g><path d="M261.29806,211.68556c-0.04484,2.32678 -8.58676,1.99123 -21.25914,1.94727c-12.67238,-0.04395 -20.42495,0.44061 -20.38013,-1.88617c0.01477,-0.76705 41.65841,-1.05448 41.63927,-0.0611z" data-paper-data="{&quot;index&quot;:null}" fill="#205c7f"/><path d="M260.53739,210.78912c0,1.40059 -8.27081,1.21645 -20.53257,1.21645c-12.26178,0 -19.75356,0.30785 -19.75356,-1.09274c0,-0.46172 13.647,-2.4485 15.45834,-2.47425c1.17772,-0.01674 3.04576,0.89372 4.25139,0.91397c1.83652,0.03084 3.66802,-0.96442 5.43928,-0.92266c8.28304,0.19524 15.13717,1.7613 15.13717,2.35925z" fill="#205c7f"/></g></g></g></svg>
