<svg xmlns="http://www.w3.org/2000/svg" xmlns:xlink="http://www.w3.org/1999/xlink" version="1.1" width="68.7621" height="131.32084" viewBox="0,0,68.7621,131.32084"><g transform="translate(-205.61896,-114.33958)"><g data-paper-data="{&quot;isPaintingLayer&quot;:true}" fill-rule="nonzero" stroke="none" stroke-linecap="butt" stroke-linejoin="miter" stroke-miterlimit="10" stroke-dasharray="" stroke-dashoffset="0" style="mix-blend-mode: normal"><g data-paper-data="{&quot;index&quot;:null}"><path d="M249.09774,155.64184l11.96342,-41.30226l7.68414,2.22575l-11.96341,41.30226z" fill="#461b00" stroke-width="0"/><path d="M261.25485,124.43692c-0.5,0 -0.5,-0.5 -0.5,-0.5c0,-1.44445 0,-3.38889 0,-4.83334c0,0 0,-0.5 0.5,-0.5c0.5,0 0.5,0.5 0.5,0.5c0,1.44445 0,2.88889 0,4.33334v0.5c0,0 0,0.5 -0.5,0.5z" fill="#6b2900" stroke-width="0.5"/><path d="M259.5882,135.10359c-0.5,0 -0.5,-0.5 -0.5,-0.5l0.02146,-0.64489c0.59003,-0.88504 0.33876,-2.14708 0.67087,-3.17989c0,0 0.15812,-0.47434 0.63245,-0.31623c0.47434,0.15811 0.31623,0.63246 0.31623,0.63246c-0.35877,1.02665 -0.05835,2.24728 -0.66246,3.15345l0.02146,0.3551c0,0 0,0.5 -0.5,0.5z" fill="#6b2900" stroke-width="0.5"/><path d="M255.25487,149.77025c-0.5,0 -0.5,-0.5 -0.5,-0.5c0,-1.5 0,-3.33333 0,-4.83333c0,0 0,-0.5 0.5,-0.5c0.5,0 0.5,0.5 0.5,0.5c0,1.5 0,3 0,4.5v0.33333c0,0 0,0.5 -0.5,0.5z" fill="#6b2900" stroke-width="0.5"/><path d="M259.25485,142.93692c-0.5,0 -0.5,-0.5 -0.5,-0.5v-0.66667c0,-0.95188 -0.10049,-1.91416 0.19232,-2.82478c0,0 0.15812,-0.47434 0.63245,-0.31623c0.47434,0.15811 0.31623,0.63245 0.31623,0.63245c-0.27107,0.77569 -0.14101,1.69048 -0.14101,2.50855v0.66667c0,0 0,0.5 -0.5,0.5z" fill="#6b2900" stroke-width="0.5"/><path d="M258.42152,130.10359c-0.5,0 -0.5,-0.5 -0.5,-0.5c0,-0.83334 0,-2 0,-2.83334c0,0 0,-0.5 0.5,-0.5c0.5,0 0.5,0.5 0.5,0.5c0,0.83334 0,1.66666 0,2.5v0.33334c0,0 0,0.5 -0.5,0.5z" fill="#6b2900" stroke-width="0.5"/><path d="M255.42152,156.27025c-0.5,0 -0.5,-0.5 -0.5,-0.5c0,-1.11111 0,-2.38889 0,-3.5c0,0 0,-0.5 0.5,-0.5c0.5,0 0.5,0.5 0.5,0.5c0,1.11111 0,2.22223 0,3.33334v0.16666c0,0 0,0.5 -0.5,0.5z" fill="#6b2900" stroke-width="0.5"/><path d="M256.0882,142.27025c-0.5,0 -0.5,-0.5 -0.5,-0.5c0,-0.88889 0,-2.27777 0,-3.16666c0,0 0,-0.5 0.5,-0.5c0.5,0 0.5,0.5 0.5,0.5c0,0.88889 0,1.77777 0,2.66666v0.5c0,0 0,0.5 -0.5,0.5z" fill="#6b2900" stroke-width="0.5"/><path d="M265.75485,122.27025c-0.5,0 -0.5,-0.5 -0.5,-0.5v-0.5c0.00563,-0.84265 0.16667,-1.64328 0.16667,-2.5c0,0 0,-0.5 0.5,-0.5c0.5,0 0.5,0.5 0.5,0.5c0,0.85146 -0.17377,1.66823 -0.16667,2.5v0.5c0,0 0,0.5 -0.5,0.5z" fill="#6b2900" stroke-width="0.5"/><path d="M251.76341,154.07793c-0.47434,-0.15812 -0.31623,-0.63246 -0.31623,-0.63246l0.14747,-0.42198c0,-0.80765 0.16021,-1.58706 0.16021,-2.41991c0,0 0,-0.5 0.5,-0.5c0.5,0 0.5,0.5 0.5,0.5c0,0.88292 -0.17312,1.72343 -0.17312,2.58009l-0.18587,0.57802c0,0 -0.15812,0.47434 -0.63245,0.31623z" fill="#6b2900" stroke-width="0.5"/></g><path d="M262.60666,172.8532l-23.43904,72.80722l-24.92697,-73.15773z" fill="#97803e" stroke-width="0"/><path d="M243.17896,163.27336c0,9.65385 -8.40809,17.47985 -18.78,17.47985c-10.37191,0 -18.78,-7.82599 -18.78,-17.47985c0,-9.65385 8.40809,-17.47985 18.78,-17.47985c10.37191,0 18.78,7.826 18.78,17.47985z" fill="#6b2900" stroke-width="0"/><path d="M274.38106,161.43147c0,12.46624 -11.72282,22.57211 -26.18365,22.57211c-14.46084,0 -26.18366,-10.10588 -26.18366,-22.57211c0,-12.46623 11.72282,-22.57212 26.18366,-22.57212c14.46083,0 26.18365,10.10589 26.18365,22.57212z" fill="#6b2900" stroke-width="0"/><path d="M244.6236,143.40989c0,9.65386 -8.40809,17.47985 -18.78,17.47985c-10.37191,0 -18.78,-7.82599 -18.78,-17.47985c0,-9.65386 8.40809,-17.47984 18.78,-17.47984c10.37191,0 18.78,7.82599 18.78,17.47984z" fill="#6b2900" stroke-width="0"/><path d="M262.71209,154.95283c0,3.69552 -2.91799,6.69133 -6.51752,6.69133c-3.59953,0 -6.51752,-2.9958 -6.51752,-6.69133c0,-3.69552 2.91799,-6.69133 6.51752,-6.69133c3.59953,0 6.51752,2.9958 6.51752,6.69133z" fill="#6b2900" stroke-width="0"/><g stroke-width="0"><path d="M260.43822,149.42892c0,3.94405 -3.11423,7.14133 -6.95584,7.14133c-3.84161,0 -6.95585,-3.19728 -6.95585,-7.14133c0,-3.94405 3.11424,-7.14133 6.95585,-7.14133c3.84161,0 6.95584,3.19728 6.95584,7.14133z" fill="#ffffff"/><path d="M258.39781,149.52166c0,2.76596 -2.18401,5.00821 -4.87813,5.00821c-2.69411,0 -4.87813,-2.24225 -4.87813,-5.00821c0,-2.76596 2.18401,-5.00821 4.87813,-5.00821c2.69411,0 4.87813,2.24225 4.87813,5.00821z" fill="#6b2900"/><path d="M256.91391,149.52166c0,1.94641 -1.5369,3.52429 -3.43275,3.52429c-1.89586,0 -3.43275,-1.57788 -3.43275,-3.52429c0,-1.94641 1.5369,-3.52429 3.43275,-3.52429c1.89586,0 3.43275,1.57788 3.43275,3.52429z" fill="#000000"/><path d="M253.94606,147.29579c0,1.22931 -0.91351,2.22587 -2.04038,2.22587c-1.12687,0 -2.04038,-0.99656 -2.04038,-2.22587c0,-1.22931 0.91351,-2.22587 2.04038,-2.22587c1.12687,0 2.04038,0.99656 2.04038,2.22587z" fill="#ffffff"/><path d="M251.39562,149.15068c0,0.61466 -0.5398,1.11294 -1.20568,1.11294c-0.66588,0 -1.20568,-0.49828 -1.20568,-1.11294c0,-0.61466 0.53981,-1.11293 1.20568,-1.11293c0.66588,0 1.20568,0.49828 1.20568,1.11293z" fill="#ffffff"/></g><g stroke-width="0"><path d="M234.23821,149.82891c0,3.94405 -3.11424,7.14134 -6.95584,7.14134c-3.84161,0 -6.95585,-3.19729 -6.95585,-7.14134c0,-3.94405 3.11424,-7.14133 6.95585,-7.14133c3.84161,0 6.95584,3.19728 6.95584,7.14133z" fill="#ffffff"/><path d="M232.19782,149.92166c0,2.76596 -2.18401,5.00821 -4.87812,5.00821c-2.69412,0 -4.87813,-2.24225 -4.87813,-5.00821c0,-2.76596 2.18401,-5.00821 4.87813,-5.00821c2.69412,0 4.87812,2.24224 4.87812,5.00821z" fill="#6b2900"/><path d="M230.71389,149.92166c0,1.94641 -1.5369,3.52429 -3.43276,3.52429c-1.89585,0 -3.43275,-1.57788 -3.43275,-3.52429c0,-1.94642 1.5369,-3.5243 3.43275,-3.5243c1.89585,0 3.43276,1.57788 3.43276,3.5243z" fill="#000000"/><path d="M227.74609,147.69579c0,1.22931 -0.91351,2.22587 -2.04038,2.22587c-1.12687,0 -2.04039,-0.99656 -2.04039,-2.22587c0,-1.22931 0.91352,-2.22587 2.04039,-2.22587c1.12687,0 2.04038,0.99656 2.04038,2.22587z" fill="#ffffff"/><path d="M225.19561,149.55068c0,0.61466 -0.5398,1.11294 -1.20568,1.11294c-0.66587,0 -1.20569,-0.49829 -1.20569,-1.11294c0,-0.61465 0.53981,-1.11293 1.20569,-1.11293c0.66588,0 1.20568,0.49827 1.20568,1.11293z" fill="#ffffff"/></g><g stroke-width="0"><path d="M250.67061,172.58604c-0.02335,3.19439 -4.47231,2.73371 -11.07259,2.67336c-6.60028,-0.06035 -10.63811,0.6049 -10.61476,-2.58949c0.0077,-1.05308 21.69731,-1.44766 21.68735,-0.08387z" data-paper-data="{&quot;index&quot;:null}" fill="#7a370d"/><path d="M250.27441,171.35533c0,1.92284 -4.30776,1.67004 -10.69417,1.67004c-6.3864,0 -10.28842,0.42263 -10.28842,-1.50021c0,-0.63389 7.10789,-3.3615 8.05129,-3.39685c0.61341,-0.02297 1.58636,1.22699 2.21431,1.25477c0.95654,0.04234 1.91045,-1.32403 2.83299,-1.26671c4.31414,0.26803 7.88402,2.41802 7.88402,3.23895z" fill="#441a00"/></g></g></g></svg>